#N canvas 572 315 923 547 10;
#X symbolatom 116 322 60 0 0 0 - - -, f 60;
#X obj 26 85 bng 15 250 50 0 empty empty empty 17 7 0 10 -262144 -1
-1;
#X text 24 13 VIDEOGRID;
#X text 164 73 ADD VIDEO;
#X text 164 106 ADD VIDEOS FROM FOLDER;
#X text 25 29 Object to select the path location of a video quiktime
added in the grid \, in form of image of its first frame.;
#X text 74 349 LOCATION OF THE SELECTED VIDEO;
#X text 24 68 LIST STDOUT;
#X obj 116 154 videogrid videogrid1 3 5 #000 #444 #f10 mov:mpg:avi
60 40 /srv/visuals/cinder/eggs/fleshbulb.mov|/srv/visuals/cinder/eggs/moonrise.mov|/srv/visuals/cinder/eggs/eieiei.mov|/srv/visuals/cinder/eggs/aschenschneeei.mov|/srv/visuals/cinder/eggs/scherbenschwein.mov|/srv/visuals/cinder/eggs/elephotato.mov|/srv/visuals/cinder/eggs/scherbenwald.mov|/srv/visuals/cinder/eggs/pomelo.mov|/srv/visuals/cinder/eggs/fleshfire.mov|
;
#X msg 166 87 putvideo \$1;
#X obj 278 70 openpanel;
#X obj 255 58 bng 15 250 50 0 empty empty empty 17 7 0 10 -262144 -1
-1;
#X msg 26 136 clear;
#X msg 102 98 seek \$1;
#X floatatom 102 71 5 0 0 0 - - -, f 5;
#X msg 447 137 cols 5;
#X msg 497 137 rows 3;
#X msg 166 120 putvideodir /srv/visuals/cinder/eggs;
#X connect 1 0 8 0;
#X connect 8 0 0 0;
#X connect 9 0 8 0;
#X connect 10 0 9 0;
#X connect 11 0 10 0;
#X connect 12 0 8 0;
#X connect 13 0 8 0;
#X connect 14 0 13 0;
#X connect 15 0 8 0;
#X connect 16 0 8 0;
#X connect 17 0 8 0;
